<svg preserveAspectRatio="none" width="100%" height="100%" overflow="visible" style="display: block;" viewBox="0 0 191 72" fill="none" xmlns="http://www.w3.org/2000/svg">
<g id="LOGOTIPO-ORIGINAL" clip-path="url(#clip0_8_318)">
<path id="Vector" d="M9.87034 36.7852L24.8251 36.1098H26.2413L10.1007 37.2833L9.87034 36.7852Z" fill="var(--fill-0, #8F4420)"/>
<path id="Vector_2" d="M6.96128 30.6642L11.0647 39.3011L5.28067 34.4803L6.96128 30.6642Z" fill="var(--fill-0, #8F4420)"/>
<path id="Vector_3" d="M32.23 31.5253L5.59632 27.667C5.59632 27.667 7.28545 30.7317 8.07883 30.6557C8.87221 30.5797 34.286 34.0075 34.286 34.0075L33.9618 33.2899L32.23 31.5253Z" fill="var(--fill-0, #DD6626)"/>
<path id="Vector_4" d="M39.925 8.62852L32.23 31.5253L34.7381 33.9906L44.5488 5.36116L39.925 8.62852Z" fill="var(--fill-0, #CE6228)"/>
<path id="Vector_5" d="M36.5552 36.954L62.9586 22.0525L61.824 18.4475L34.0642 33.1463L36.5552 36.954Z" fill="var(--fill-0, #8F4420)"/>
<path id="Vector_6" d="M58.7955 20.1529L46.4938 6.48405L46.8606 5.36116L61.3718 18.7261L58.7955 20.1529Z" fill="var(--fill-0, #D46427)"/>
<path id="Vector_7" d="M58.7955 20.1529L51.5868 34.3621L56.5177 34.9784L63.2742 17.6285L58.7955 20.1529Z" fill="var(--fill-0, #DD6626)"/>
<path id="Vector_8" d="M37.3657 32.2767L53.5916 33.6445L35.8045 35.5947L37.3657 32.2767Z" fill="var(--fill-0, #8F4420)"/>
<path id="Vector_9" d="M13.7198 3.51083L10.0622 6.24059L33.7104 37.2758L37.368 34.5461L13.7198 3.51083Z" fill="url(#paint0_linear_8_318)"/>
<path id="Vector_10" d="M37.8861 5.36116L14.3918 8.18105L12.4552 5.90994L38.3894 3.07317L37.8861 5.36116Z" fill="var(--fill-0, #D46427)"/>
<path id="Vector_11" d="M34.3713 5.76642L6.16789 24.0028L18.5463 17.3752L39.0207 4.60131L34.3713 5.76642Z" fill="var(--fill-0, #8F4420)"/>
<path id="Vector_12" d="M29.5172 37.0385L23.0592 50.0066L26.2925 49.5169L33.5182 35.1895L29.5172 37.0385Z" fill="var(--fill-0, #8F4420)"/>
<path id="Vector_13" d="M20.9862 57.3265C20.2355 56.9887 19.7407 56.2542 19.6554 55.4437L18.862 47.9887C18.6828 46.3508 17.5909 44.9493 16.0297 44.3752C16.0297 44.3752 11.7557 42.7373 8.94899 41.7664C7.19161 41.1585 5.01621 38.1782 5.01621 38.1782C5.01621 38.1782 2.0389 33.6445 0.716602 31.5507C-0.605699 29.4568 0.298584 27.2364 0.298584 27.2364L9.22199 5.36116C9.22199 5.36116 10.2798 2.49906 13.3424 2.49062C19.4336 2.00938 40.6501 0.337711 43.5336 0.0337711C46.9033 -0.312383 49.3346 1.95872 49.3346 1.95872C49.3346 1.95872 60.442 12.9428 63.2742 15.6867C66.1065 18.439 64.1103 22.1201 64.1103 22.1201L57.7291 35.5779C57.7291 35.5779 57.004 38.1698 53.5831 38.1698C51.2968 38.1698 42.4331 38.1698 38.5429 38.1698C37.3827 38.1698 36.2993 38.7355 35.6424 39.6726L23.8185 56.5413C23.3834 57.166 22.6753 57.5206 21.9331 57.5206C21.6175 57.5206 21.2848 57.4531 20.9777 57.318L20.9862 57.3265ZM60.4078 19.2664L45.3507 4.4409L13.4875 7.02439L4.52142 29.0178L9.87034 37.2664C9.87034 37.2664 17.4203 39.8752 20.2355 41.0826C23.0507 42.2899 23.1872 45.3462 23.1872 45.3462L23.5711 48.9512L32.9381 35.5863C32.9381 35.5863 32.9552 35.561 32.9637 35.5525L33.6718 34.5816C34.1068 33.9906 34.7979 33.6445 35.5315 33.6445H53.5916L60.4078 19.2664Z" fill="var(--fill-0, #F37021)"/>
<path id="Vector_14" d="M3.37827 30.6642C3.78775 30.6642 4.20577 30.5544 4.58113 30.3265L44.7535 5.606C45.8284 4.94747 46.1611 3.54597 45.4957 2.48218C44.8303 1.41839 43.4141 1.08912 42.3392 1.74765L2.16687 26.4597C1.09196 27.1182 0.759257 28.5197 1.42467 29.5835C1.85975 30.2758 2.61048 30.6557 3.37827 30.6557V30.6642Z" fill="var(--fill-0, #F37021)"/>
<path id="Vector_15" d="M35.5315 38.1867C36.5126 38.1867 37.4169 37.5535 37.7154 36.591L47.9185 4.55066C48.2938 3.35178 47.6199 2.08537 46.417 1.70544C45.2056 1.33396 43.926 2.00094 43.5421 3.19137L33.9618 33.2814L3.46358 27.2364C2.21805 26.9916 1.01519 27.7852 0.767788 29.0178C0.520389 30.2505 1.3223 31.4409 2.56782 31.6857L35.0879 38.136C35.2415 38.1698 35.3865 38.1782 35.54 38.1782L35.5315 38.1867Z" fill="var(--fill-0, #F37021)"/>
<path id="Vector_16" d="M14.3918 8.18105L13.4875 7.02439L6.69682 23.6735L14.3918 8.18105Z" fill="var(--fill-0, #BC5927)"/>
<path id="Vector_17" d="M17.2155 39.9765L30.7456 38.727L31.6329 37.4522L24.8251 36.1098L9.87034 37.2749L17.2155 39.9765Z" fill="url(#paint1_linear_8_318)"/>
<path id="Vector_18" d="M44.0795 33.6445L55.093 27.4475L58.7955 20.1529L39.4558 31.0947L38.4747 33.7373L44.0795 33.6445Z" fill="url(#paint2_linear_8_318)"/>
<path id="Vector_19" d="M47.4493 55.1229C46.9033 55.0553 46.4 55.0131 45.9393 54.9878C45.4786 54.9625 45.0435 54.9456 44.6255 54.9287C44.2075 54.9203 43.7895 54.9118 43.3715 54.9118V62.1979C43.3715 63.7767 43.4056 65.0347 43.4653 65.9803C43.5336 66.9259 43.6786 67.6435 43.9175 68.1332C44.1563 68.6229 44.489 68.9437 44.9156 69.1041C45.3507 69.2561 45.9393 69.3405 46.6986 69.3405C46.9033 69.3405 47.2104 69.3152 47.6199 69.2645C48.0209 69.2139 48.5754 69.0957 49.2834 68.9184V71.6285C48.345 71.8311 47.5346 71.9493 46.8521 71.9747C46.1696 72 45.6919 72.0169 45.4018 72.0169C44.0198 72.0169 42.9108 71.9071 42.0918 71.6876C41.2729 71.4681 40.6416 71.0122 40.215 70.3283C39.7799 69.6445 39.4984 68.6651 39.3534 67.3987C39.2084 66.1323 39.1401 64.4437 39.1401 62.3246V45.228H43.3715V52.2439C43.8919 52.2439 44.3867 52.2608 44.8388 52.2861C45.2995 52.3114 45.7431 52.3368 46.1867 52.3621C46.6303 52.3874 47.0995 52.4212 47.5943 52.455C48.0891 52.4972 48.6521 52.5478 49.2749 52.6323V55.3424C48.5924 55.2664 47.9782 55.1904 47.4322 55.1313L47.4493 55.1229Z" fill="var(--fill-0, white)"/>
<path id="Vector_20" d="M53.0285 71.7805V61.9278C53.0285 59.8086 53.0968 58.1201 53.2418 56.8537C53.3868 55.5872 53.6769 54.6163 54.1034 53.924C54.53 53.2401 55.1613 52.7842 55.9803 52.5647C56.7992 52.3452 57.9083 52.2355 59.2903 52.2355C59.5803 52.2355 60.0581 52.2523 60.7405 52.2777C61.423 52.303 62.2249 52.4212 63.1719 52.6238V55.334C62.4638 55.1567 61.9093 55.0385 61.5083 54.9878C61.1074 54.9371 60.8003 54.9118 60.587 54.9118C59.8277 54.9118 59.2391 54.9878 58.804 55.1482C58.3689 55.3002 58.0362 55.6295 57.8059 56.1191C57.567 56.6088 57.422 57.3265 57.3537 58.272C57.2855 59.2176 57.2599 60.4756 57.2599 62.0544V71.7889H53.0285V71.7805Z" fill="var(--fill-0, white)"/>
<path id="Vector_21" d="M74.9446 52.2355C76.2499 52.2355 77.3077 52.3283 78.1181 52.5225C78.9286 52.7167 79.5513 53.1135 79.9949 53.7214C80.4386 54.3293 80.7457 55.1904 80.9163 56.3218C81.0869 57.4447 81.1808 58.939 81.2064 60.7964V71.9409H76.975V71.5356C76.139 71.637 75.32 71.7383 74.5095 71.848C73.6991 71.9493 72.7863 72 71.7711 72C70.6194 72 69.6725 71.9071 68.9132 71.7298C68.154 71.5525 67.5397 71.2486 67.0705 70.818C66.6013 70.3874 66.2686 69.8218 66.0724 69.1126C65.8762 68.4034 65.7823 67.5169 65.7823 66.4615V65.879C65.7823 64.8236 65.8762 63.9371 66.0724 63.228C66.2686 62.5188 66.6013 61.9531 67.0705 61.5225C67.5397 61.1004 68.154 60.7964 68.9132 60.6107C69.6725 60.4334 70.6194 60.3405 71.7711 60.3405C72.7863 60.3405 73.6991 60.3912 74.5095 60.4925C75.32 60.5938 76.139 60.7036 76.975 60.8049C76.9494 59.4878 76.8897 58.4409 76.7958 57.6642C76.702 56.8874 76.5314 56.2964 76.284 55.8827C76.0366 55.469 75.7039 55.2073 75.2859 55.0891C74.8678 54.9709 74.3219 54.9118 73.6394 54.9118H72.155C71.6858 54.9118 71.1995 54.9287 70.6877 54.954C70.1758 54.9794 69.6128 55.0216 69.0071 55.0891C68.3928 55.1567 67.6933 55.2411 66.9084 55.3424V52.6323C67.6933 52.531 68.3843 52.455 68.9815 52.3959C69.5786 52.3452 70.1758 52.303 70.7644 52.2777C71.3531 52.2523 71.9673 52.2355 72.6071 52.2355H74.9361H74.9446ZM76.9835 69.3236V63.0084H72.718C71.7284 63.0084 71.0374 63.2195 70.6621 63.6248C70.2867 64.0385 70.0649 64.7983 70.0137 65.9128C70.0137 67.2298 70.2014 68.1248 70.5853 68.606C70.9606 69.0872 71.6772 69.3236 72.718 69.3236H76.9835Z" fill="var(--fill-0, white)"/>
<path id="Vector_22" d="M89.4302 71.9409H85.1989V52.6238H89.4302V52.6998C90.1639 52.5478 90.9829 52.4296 91.8871 52.3537C92.7914 52.2777 93.7554 52.2355 94.7791 52.2355C96.1441 52.2355 97.2446 52.3452 98.0806 52.5647C98.9167 52.7842 99.5565 53.2401 99.983 53.924C100.418 54.6079 100.7 55.5872 100.845 56.8537C100.99 58.1201 101.058 59.8086 101.058 61.9278V71.9493H96.8266V63.0169C96.8266 61.1848 96.7924 59.7326 96.7242 58.6604C96.6559 57.5882 96.5109 56.7777 96.2891 56.2204C96.0673 55.6632 95.7346 55.3086 95.2825 55.1567C94.8389 55.0047 94.2332 54.9203 93.4739 54.9203C93.0047 54.9203 92.5526 54.9371 92.1175 54.9625C91.6824 54.9878 91.2473 55.0385 90.7952 55.1144C90.3772 55.1651 90.0359 55.3508 89.7885 55.6548C89.5411 55.9672 89.4131 56.3386 89.4131 56.7777V71.9493L89.4302 71.9409Z" fill="var(--fill-0, white)"/>
<path id="Vector_23" d="M113.163 69.3236C114.051 69.3236 114.648 69.1717 114.946 68.8762C115.245 68.5807 115.399 67.9812 115.399 67.0779C115.399 66.3011 115.143 65.6932 114.631 65.2373C114.119 64.7814 113.479 64.4015 112.711 64.0722C111.943 63.7514 111.107 63.4475 110.22 63.1604C109.333 62.8734 108.505 62.5019 107.729 62.0375C106.961 61.5732 106.322 60.9822 105.81 60.2561C105.298 59.53 105.042 58.5675 105.042 57.3518C105.042 56.3218 105.127 55.469 105.298 54.7936C105.468 54.1182 105.784 53.5947 106.253 53.2233C106.723 52.8518 107.379 52.5901 108.215 52.4465C109.051 52.303 110.135 52.2355 111.466 52.2355C112.174 52.2355 112.797 52.2355 113.343 52.2523C113.889 52.2692 114.435 52.2861 114.972 52.3114C115.509 52.3368 116.055 52.379 116.618 52.4296C117.181 52.4803 117.813 52.5478 118.521 52.6238V55.334C117.736 55.2326 117.036 55.1482 116.422 55.0807C115.808 55.0131 115.245 54.9709 114.742 54.9456C114.23 54.9203 113.743 54.9034 113.274 54.9034H111.474C110.638 54.954 110.067 55.1482 109.751 55.4859C109.435 55.8236 109.282 56.4062 109.282 57.2336C109.282 57.985 109.538 58.576 110.05 59.015C110.561 59.454 111.201 59.834 111.969 60.1548C112.737 60.4756 113.564 60.7796 114.46 61.0666C115.347 61.3537 116.175 61.7167 116.951 62.1557C117.719 62.5947 118.359 63.1604 118.871 63.8612C119.382 64.5619 119.638 65.4737 119.638 66.6135C119.638 67.6773 119.545 68.5553 119.365 69.2477C119.186 69.9484 118.862 70.4972 118.41 70.9109C117.949 71.3246 117.327 71.6116 116.533 71.7636C115.74 71.9156 114.725 72 113.496 72H112.634C111.952 72 111.346 72 110.792 71.9831C110.246 71.9662 109.708 71.9493 109.188 71.924C108.668 71.8987 108.13 71.8565 107.584 71.8058C107.038 71.7552 106.407 71.6876 105.707 71.6116V68.9015C106.492 69.0028 107.192 69.0872 107.806 69.1548C108.42 69.2223 108.983 69.2645 109.487 69.2899C109.998 69.3152 110.485 69.3321 110.954 69.3321H113.189L113.163 69.3236Z" fill="var(--fill-0, white)"/>
<path id="Vector_24" d="M138.842 56.7692C138.995 58.0863 139.08 59.8086 139.08 61.9278V71.9493H134.849V63.0169C134.849 61.1848 134.815 59.7326 134.747 58.6604C134.678 57.5882 134.533 56.7777 134.312 56.2204C134.09 55.6632 133.757 55.3086 133.305 55.1567C132.861 55.0047 132.256 54.9203 131.496 54.9203C131.027 54.9203 130.575 54.9371 130.14 54.9625C129.705 54.9878 129.27 55.0385 128.818 55.1144C128.4 55.1651 128.058 55.3508 127.811 55.6548C127.564 55.9672 127.436 56.3386 127.436 56.7777V71.9493H123.204V52.6323H127.47V52.7083C128.203 52.5563 129.014 52.4381 129.918 52.3621C130.822 52.2861 131.778 52.2439 132.793 52.2439C133.808 52.2439 134.67 52.303 135.378 52.4212C136.086 52.5394 136.666 52.7505 137.144 53.0629C138.577 52.7251 139.814 52.5056 140.846 52.4043C141.879 52.303 142.902 52.2523 143.918 52.2523C145.274 52.2523 146.374 52.3621 147.211 52.5816C148.047 52.8011 148.678 53.257 149.113 53.9409C149.548 54.6248 149.83 55.6041 149.975 56.8705C150.12 58.137 150.188 59.8255 150.188 61.9447V71.9662H145.956V63.0338C145.956 61.2017 145.922 59.7495 145.863 58.6773C145.794 57.6051 145.649 56.7946 145.428 56.2373C145.206 55.6801 144.873 55.3255 144.429 55.1735C143.986 55.0216 143.389 54.9371 142.629 54.9371C142.16 54.9371 141.708 54.954 141.281 54.9794C140.855 55.0047 140.411 55.0554 139.968 55.1313C139.575 55.182 139.277 55.3677 139.063 55.6717C138.85 55.9841 138.773 56.3555 138.825 56.7946L138.842 56.7692Z" fill="var(--fill-0, white)"/>
<path id="Vector_25" d="M158.727 52.6238H154.496V71.9409H158.727V52.6238Z" fill="var(--fill-0, white)"/>
<path id="Vector_26" d="M171.558 55.1229C171.012 55.0553 170.509 55.0131 170.048 54.9878C169.587 54.9625 169.152 54.9456 168.734 54.9287C168.316 54.9203 167.898 54.9118 167.48 54.9118V62.1979C167.48 63.7767 167.514 65.0347 167.574 65.9803C167.642 66.9259 167.787 67.6435 168.026 68.1332C168.265 68.6229 168.598 68.9437 169.024 69.1041C169.459 69.2561 170.048 69.3405 170.807 69.3405C171.012 69.3405 171.319 69.3152 171.729 69.2645C172.129 69.2139 172.684 69.0957 173.392 68.9184V71.6285C172.454 71.8311 171.643 71.9493 170.961 71.9747C170.278 72 169.801 72.0169 169.51 72.0169C168.128 72.0169 167.019 71.9071 166.2 71.6876C165.381 71.4681 164.75 71.0122 164.324 70.3283C163.889 69.6445 163.607 68.6651 163.462 67.3987C163.317 66.1323 163.249 64.4437 163.249 62.3246V48.0647H167.48V52.2439C168 52.2439 168.495 52.2608 168.947 52.2861C169.408 52.3114 169.852 52.3368 170.295 52.3621C170.739 52.3874 171.208 52.4212 171.703 52.455C172.198 52.4972 172.761 52.5478 173.384 52.6323V55.3424C172.701 55.2664 172.095 55.1904 171.541 55.1313L171.558 55.1229Z" fill="var(--fill-0, white)"/>
<path id="Vector_27" d="M184.73 52.2355C186.035 52.2355 187.093 52.3283 187.903 52.5225C188.714 52.7167 189.336 53.1135 189.78 53.7214C190.224 54.3293 190.531 55.1904 190.701 56.3218C190.872 57.4447 190.966 58.939 190.991 60.7964V71.9409H186.76V71.5356C185.924 71.637 185.105 71.7383 184.295 71.848C183.484 71.9493 182.571 72 181.556 72C180.405 72 179.458 71.9071 178.698 71.7298C177.939 71.5525 177.325 71.2486 176.856 70.818C176.386 70.3874 176.054 69.8218 175.858 69.1126C175.661 68.4034 175.567 67.5169 175.567 66.4615V65.879C175.567 64.8236 175.661 63.9371 175.858 63.228C176.054 62.5188 176.386 61.9531 176.856 61.5225C177.325 61.1004 177.939 60.7964 178.698 60.6107C179.458 60.4334 180.405 60.3405 181.556 60.3405C182.571 60.3405 183.484 60.3912 184.295 60.4925C185.105 60.5938 185.924 60.7036 186.76 60.8049C186.735 59.4878 186.675 58.4409 186.581 57.6642C186.487 56.8874 186.317 56.2964 186.069 55.8827C185.822 55.469 185.489 55.2073 185.071 55.0891C184.653 54.9709 184.107 54.9118 183.424 54.9118H181.94C181.471 54.9118 180.985 54.9287 180.473 54.954C179.961 54.9794 179.398 55.0216 178.792 55.0891C178.178 55.1567 177.478 55.2411 176.694 55.3424V52.6323C177.478 52.531 178.169 52.455 178.767 52.3959C179.364 52.3452 179.961 52.303 180.55 52.2777C181.138 52.2523 181.752 52.2355 182.392 52.2355H184.721H184.73ZM186.769 69.3236V63.0084H182.503C181.514 63.0084 180.823 63.2195 180.447 63.6248C180.072 64.0385 179.85 64.7983 179.799 65.9128C179.799 67.2298 179.987 68.1248 180.37 68.606C180.746 69.0872 181.462 69.3236 182.503 69.3236H186.769Z" fill="var(--fill-0, white)"/>
<path id="Vector_28" d="M158.727 48.0563H154.496V51.1717H158.727V48.0563Z" fill="var(--fill-0, white)"/>
</g>
<defs>
<linearGradient id="paint0_linear_8_318" x1="33.6106" y1="32.8983" x2="14.6673" y2="7.81905" gradientUnits="userSpaceOnUse">
<stop stop-color="#F37021"/>
<stop offset="1" stop-color="#8D451F"/>
</linearGradient>
<linearGradient id="paint1_linear_8_318" x1="31.6329" y1="38.0432" x2="9.87034" y2="38.0432" gradientUnits="userSpaceOnUse">
<stop stop-color="#F37021"/>
<stop offset="1" stop-color="#8D451F"/>
</linearGradient>
<linearGradient id="paint2_linear_8_318" x1="40.8634" y1="33.1717" x2="59.8632" y2="21.3613" gradientUnits="userSpaceOnUse">
<stop stop-color="#F37021"/>
<stop offset="1" stop-color="#8D451F"/>
</linearGradient>
<clipPath id="clip0_8_318">
<rect width="191" height="72" fill="white"/>
</clipPath>
</defs>
</svg>
