<svg preserveAspectRatio="none" width="100%" height="100%" overflow="visible" style="display: block;" viewBox="0 0 190.872 73" fill="none" xmlns="http://www.w3.org/2000/svg">
<g id="Layer_1" clip-path="url(#clip0_6_217)">
<path id="Vector" d="M63.2354 15.9129C60.4087 13.129 49.3066 1.99317 49.3066 1.99317C49.3066 1.99317 46.879 -0.314142 43.5128 0.0433299C40.6321 0.346639 19.4313 2.04734 13.3354 2.52396C10.2821 2.5348 9.22476 5.4379 9.22476 5.4379L0.302097 27.612C0.302097 27.612 -0.604195 29.8651 0.712087 31.9883C2.02837 34.1114 5.00618 38.7044 5.00618 38.7044C5.00618 38.7044 7.17481 41.7267 8.94424 42.3441C11.7494 43.3299 16.0219 44.9872 16.0219 44.9872C17.5864 45.5722 18.6761 46.9912 18.8487 48.6486L19.6471 56.1988C19.7334 57.0221 20.2297 57.7695 20.9742 58.1054C21.2871 58.2462 21.6107 58.3112 21.9236 58.3112C22.6681 58.3112 23.3694 57.9537 23.801 57.3254L35.6151 40.221C36.2733 39.2677 37.3522 38.6936 38.5174 38.6936H53.5468C56.9669 38.6936 57.6898 36.0613 57.6898 36.0613L64.0662 22.4124C64.0662 22.4124 66.0514 18.6752 63.2247 15.8912L63.2354 15.9129ZM6.6893 24.0047V23.9831L12.4831 9.5759L13.4433 7.18193L13.4649 7.11693L36.8127 5.19958L36.7696 5.22125L6.6893 24.0047ZM31.6123 37.9786L30.7168 39.2677L23.596 49.5802L23.5528 49.6344L23.1644 45.9838C23.1644 45.9838 23.0349 42.8857 20.2189 41.6617C19.4961 41.3475 18.4819 40.9467 17.349 40.5134C14.5546 39.4518 11.1129 38.2278 10.1311 37.8811C9.95842 37.8161 9.86132 37.7836 9.86132 37.7836L6.7864 32.974L7.95163 33.2123L24.8151 36.6029L25.1928 36.6787L29.4976 37.5453L31.6123 37.9678V37.9786ZM34.6549 31.4575L33.9536 33.6998V33.754L30.0587 32.974L8.09189 28.5544L8.26452 28.4461L20.7908 20.625L24.6965 18.1877L40.3839 8.39516L42.2613 7.22526L34.6549 31.4575ZM53.5575 34.1114H38.6361L39.4453 31.5116L39.7474 30.5367L47.0517 7.24692L47.289 6.47782L60.3439 19.5201H60.3547L53.5468 34.1114H53.5575Z" fill="var(--fill-0, white)"/>
<path id="Vector_2" d="M38.6361 34.1114L39.4453 31.5116L39.4345 31.5225L38.4527 34.2089L44.0523 34.1114H38.6361Z" fill="var(--fill-0, white)"/>
<path id="Vector_3" d="M39.4453 31.5116H39.4345L38.4527 34.2089L44.0631 34.1114H38.6469L39.4561 31.5116H39.4453Z" fill="var(--fill-0, white)"/>
<path id="Vector_4" d="M8.10268 33.819L9.87211 36.5704L9.23555 34.0464L8.10268 33.819Z" fill="var(--fill-0, white)"/>
<path id="Vector_5" d="M40.0926 9.25093L39.7042 9.53257L33.3494 28.7819L34.4391 30.2334L41.1931 8.55765L40.0926 9.25093Z" fill="var(--fill-0, white)"/>
<path id="Vector_6" d="M59.4053 19.7476L47.8069 8.09185L47.7853 8.15685L58.4235 20.3109L59.4053 19.7476Z" fill="var(--fill-0, white)"/>
<path id="Vector_7" d="M17.8993 16.2379L21.19 14.0822L17.144 8.7418L14.8783 9.02345L13.9181 10.9733L17.8993 16.2379Z" fill="var(--fill-0, white)"/>
<path id="Vector_8" d="M24.923 19.0218L21.5784 21.1016L29.2063 31.2842L29.8321 32.1616L33.3494 32.9415L33.9212 31.1L24.923 19.0218Z" fill="var(--fill-0, white)"/>
<path id="Vector_9" d="M17.3274 8.02686L29.3466 6.56448L14.4575 7.78854L14.8783 8.33017L17.3274 8.02686Z" fill="var(--fill-0, white)"/>
<path id="Vector_10" d="M32.0007 6.31533L24.4159 12.1215L34.288 5.95786L32.0007 6.31533Z" fill="var(--fill-0, white)"/>
<path id="Vector_11" d="M10.6166 16.097L13.206 10.8108L14.2417 8.68764L13.821 8.13518L13.0441 10.0634L10.6166 16.097Z" fill="var(--fill-0, white)"/>
<path id="Vector_12" d="M24.0275 37.1012L12.4291 37.9245C13.9396 38.4661 16.2809 39.311 18.3093 40.0801L27.8037 38.9969L28.2785 37.9245L24.0383 37.1012H24.0275Z" fill="var(--fill-0, white)"/>
<path id="Vector_13" d="M25.2359 45.8755L29.8213 39.2244L30.4255 38.3578L29.0553 38.0761L28.2245 39.766L25.2359 45.8755Z" fill="var(--fill-0, white)"/>
<path id="Vector_14" d="M40.3624 31.4467L39.715 33.494L42.3799 33.3965L42.8439 33.1365L43.7717 32.6166L55.1543 26.4312L57.6359 21.4591L40.3624 31.4467Z" fill="var(--fill-0, white)"/>
<path id="Vector_15" d="M58.6069 20.6684L55.6399 26.6154L52.2736 33.3315L53.126 33.3965L59.2434 20.3109L58.6069 20.6684Z" fill="var(--fill-0, white)"/>
<path id="Vector_16" d="M43.4481 33.3965L44.3436 32.8657L51.486 33.3965H43.4481Z" fill="var(--fill-0, white)"/>
<path id="Vector_17" d="M47.4185 55.8847C46.8682 55.8197 46.3719 55.7764 45.908 55.7439C45.4549 55.7222 45.0125 55.7006 44.5917 55.6897C44.1709 55.6789 43.761 55.6681 43.3402 55.6681V63.0558C43.3402 64.659 43.3725 65.9264 43.4373 66.8905C43.502 67.8437 43.6531 68.5695 43.8904 69.0678C44.1278 69.5661 44.4623 69.8911 44.8938 70.0536C45.3254 70.2161 45.9188 70.2919 46.674 70.2919C46.879 70.2919 47.1919 70.2702 47.5911 70.2161C47.9903 70.1619 48.5514 70.0427 49.2527 69.8586V72.61C48.314 72.8158 47.5048 72.935 46.8251 72.9675C46.1454 72.9892 45.6599 73.0108 45.3793 73.0108C43.9983 73.0108 42.8978 72.9025 42.0671 72.675C41.2363 72.4475 40.6213 71.9926 40.1897 71.2993C39.7582 70.606 39.4669 69.6203 39.3266 68.3312C39.1863 67.053 39.1108 65.3306 39.1108 63.1858V45.8538H43.3402V52.9708C43.8581 52.9708 44.3544 52.9816 44.8075 53.0141C45.2607 53.0358 45.7138 53.0683 46.1562 53.0899C46.5985 53.1116 47.0732 53.1441 47.5695 53.1874C48.0658 53.2307 48.6269 53.2849 49.2527 53.3607V56.1122C48.5729 56.0364 47.958 55.9605 47.4077 55.8955L47.4185 55.8847Z" fill="var(--fill-0, white)"/>
<path id="Vector_18" d="M52.9965 72.7725V62.785C52.9965 60.6402 53.072 58.9178 53.2123 57.6396C53.3525 56.3613 53.6439 55.3647 54.0754 54.6715C54.507 53.9782 55.1328 53.5232 55.9527 53.2957C56.7727 53.0683 57.8732 52.9599 59.265 52.9599C59.5563 52.9599 60.0311 52.9708 60.7108 53.0033C61.3905 53.0249 62.1997 53.1441 63.1383 53.3607V56.1122C62.437 55.928 61.876 55.8089 61.4768 55.7547C61.0668 55.7006 60.7647 55.6789 60.5597 55.6789C59.8045 55.6789 59.2111 55.7547 58.7795 55.9172C58.3479 56.0797 58.0135 56.4047 57.7761 56.903C57.5388 57.4012 57.3877 58.127 57.323 59.0803C57.2582 60.0335 57.2259 61.3118 57.2259 62.915V72.7834H52.9965V72.7725Z" fill="var(--fill-0, white)"/>
<path id="Vector_19" d="M74.8986 52.9599C76.204 52.9599 77.2614 53.0574 78.0706 53.2524C78.8798 53.4474 79.5055 53.859 79.9479 54.4656C80.3903 55.0831 80.7031 55.9605 80.865 57.0979C81.0376 58.2353 81.1347 59.7519 81.1563 61.6367V72.935H76.9269V72.5234C76.0962 72.6317 75.2654 72.7292 74.4562 72.8375C73.647 72.9458 72.7299 73 71.7157 73C70.5721 73 69.6119 72.9025 68.8566 72.7292C68.1014 72.545 67.4864 72.2417 67.0117 71.8084C66.5369 71.3751 66.2133 70.801 66.0083 70.0752C65.8141 69.3603 65.717 68.4612 65.717 67.3888V66.8038C65.717 65.7314 65.8141 64.8323 66.0083 64.1174C66.2025 63.4024 66.5369 62.8175 67.0117 62.3842C67.4864 61.9509 68.0906 61.6476 68.8566 61.4634C69.6119 61.2793 70.5613 61.1926 71.7157 61.1926C72.7299 61.1926 73.647 61.2468 74.4562 61.3551C75.2654 61.4634 76.0854 61.5609 76.9269 61.6692C76.9054 60.3368 76.8406 59.2753 76.7543 58.4845C76.6572 57.6937 76.4954 57.0979 76.2472 56.6755C75.9991 56.253 75.6646 55.993 75.2546 55.8739C74.8338 55.7547 74.2944 55.7005 73.6146 55.7005H72.1257C71.651 55.7005 71.1655 55.7114 70.6584 55.7439C70.1513 55.7655 69.5903 55.8197 68.9753 55.8847C68.3603 55.9497 67.659 56.0364 66.8822 56.1447V53.3932C67.6698 53.2849 68.3603 53.2091 68.9537 53.1549C69.5579 53.1008 70.1513 53.0683 70.7339 53.0358C71.3165 53.0141 71.9315 52.9924 72.5789 52.9924H74.9093L74.8986 52.9599ZM76.9377 70.281V63.8791H72.676C71.6834 63.8791 71.0037 64.0849 70.626 64.5073C70.2484 64.9298 70.0326 65.6989 69.9787 66.8255C69.9787 68.1579 70.1729 69.0678 70.5505 69.5553C70.9281 70.0427 71.6402 70.281 72.6868 70.281H76.9485H76.9377Z" fill="var(--fill-0, white)"/>
<path id="Vector_20" d="M89.3669 72.935H85.1375V53.3499H89.3669V53.4257C90.1005 53.2632 90.9205 53.1549 91.816 53.0683C92.7223 52.9924 93.6825 52.9491 94.7075 52.9491C96.0669 52.9491 97.1674 53.0574 98.009 53.2849C98.8506 53.5124 99.4763 53.9674 99.9187 54.6606C100.35 55.3539 100.642 56.3397 100.782 57.6287C100.922 58.9178 100.998 60.6293 100.998 62.7742V72.935H96.7682V63.8791C96.7682 62.0159 96.7359 60.5427 96.6711 59.4594C96.6064 58.3762 96.4661 57.5421 96.2396 56.9788C96.013 56.4155 95.6785 56.058 95.2362 55.8955C94.7938 55.733 94.1896 55.6572 93.4236 55.6572C92.9489 55.6572 92.4957 55.6681 92.0642 55.7005C91.6326 55.7222 91.1902 55.7764 90.7479 55.863C90.3271 55.9172 89.9926 56.1014 89.7445 56.4155C89.4963 56.7296 89.3669 57.1088 89.3669 57.5529V72.935Z" fill="var(--fill-0, white)"/>
<path id="Vector_21" d="M113.092 70.281C113.977 70.281 114.57 70.1294 114.873 69.8261C115.175 69.5228 115.326 68.9162 115.326 67.9954C115.326 67.2046 115.067 66.5872 114.56 66.1322C114.053 65.6773 113.416 65.2765 112.639 64.9515C111.873 64.6265 111.042 64.3124 110.158 64.0307C109.273 63.7382 108.442 63.3591 107.676 62.8933C106.91 62.4167 106.263 61.8209 105.756 61.0843C105.249 60.3477 104.99 59.3728 104.99 58.1379C104.99 57.0871 105.076 56.2205 105.249 55.5489C105.421 54.8664 105.734 54.3357 106.209 53.9565C106.684 53.5774 107.331 53.3174 108.162 53.1658C108.992 53.0249 110.082 52.9491 111.409 52.9491C112.11 52.9491 112.736 52.9491 113.286 52.9708C113.837 52.9816 114.376 53.0033 114.916 53.0249C115.455 53.0466 115.995 53.0899 116.556 53.1441C117.117 53.1983 117.753 53.2632 118.455 53.3391V56.0905C117.667 55.9822 116.976 55.8955 116.361 55.8305C115.746 55.7655 115.185 55.7222 114.678 55.6897C114.171 55.6681 113.675 55.6464 113.211 55.6464H111.409C110.578 55.7005 109.996 55.8955 109.683 56.2313C109.37 56.5671 109.208 57.1629 109.208 57.997C109.208 58.7553 109.467 59.3619 109.974 59.8061C110.481 60.2502 111.118 60.6402 111.895 60.9651C112.661 61.2901 113.491 61.6042 114.376 61.8859C115.261 62.1784 116.092 62.5358 116.858 62.9908C117.624 63.4349 118.271 64.0091 118.778 64.724C119.285 65.4281 119.544 66.3597 119.544 67.5188C119.544 68.5912 119.458 69.4795 119.274 70.1944C119.091 70.8985 118.767 71.4618 118.314 71.8843C117.861 72.3067 117.235 72.5884 116.437 72.7509C115.639 72.9133 114.635 72.9892 113.405 72.9892H112.542C111.862 72.9892 111.247 72.9892 110.708 72.9675C110.158 72.9567 109.629 72.935 109.1 72.9133C108.582 72.8917 108.043 72.8483 107.493 72.7942C106.942 72.74 106.317 72.675 105.615 72.5992V69.8478C106.403 69.9561 107.093 70.0427 107.708 70.1077C108.323 70.1727 108.885 70.2161 109.392 70.2486C109.899 70.2702 110.384 70.2919 110.859 70.2919H113.092V70.281Z" fill="var(--fill-0, white)"/>
<path id="Vector_22" d="M138.76 57.5529C138.922 58.8853 138.997 60.6293 138.997 62.7742V72.935H134.768V63.8791C134.768 62.0159 134.735 60.5427 134.671 59.4594C134.606 58.3762 134.466 57.5421 134.239 56.9788C134.013 56.4155 133.678 56.058 133.236 55.8955C132.793 55.733 132.189 55.6572 131.423 55.6572C130.948 55.6572 130.495 55.6681 130.064 55.7005C129.632 55.7222 129.19 55.7764 128.747 55.863C128.327 55.9172 127.992 56.1014 127.744 56.4155C127.496 56.7296 127.366 57.1088 127.366 57.5529V72.935H123.137V53.3499H127.399V53.4257C128.132 53.2632 128.942 53.1549 129.848 53.0683C130.743 52.9924 131.704 52.9491 132.729 52.9491C133.754 52.9491 134.606 53.0033 135.307 53.1224C136.009 53.2416 136.602 53.4582 137.066 53.7724C138.501 53.4366 139.731 53.2091 140.767 53.1008C141.802 52.9924 142.817 52.9383 143.841 52.9383C145.201 52.9383 146.291 53.0466 147.132 53.2741C147.963 53.5016 148.6 53.9565 149.031 54.6498C149.463 55.3431 149.743 56.3288 149.894 57.6179C150.034 58.907 150.11 60.6185 150.11 62.7633V72.9242H145.881V63.8682C145.881 62.005 145.848 60.5318 145.784 59.4486C145.719 58.3653 145.579 57.5312 145.352 56.9679C145.125 56.4047 144.802 56.0472 144.349 55.8847C143.906 55.7222 143.302 55.6464 142.547 55.6464C142.072 55.6464 141.63 55.6572 141.198 55.6897C140.767 55.7114 140.335 55.7655 139.882 55.8522C139.493 55.9064 139.191 56.0905 138.986 56.4047C138.781 56.7188 138.695 57.0979 138.749 57.5421L138.76 57.5529Z" fill="var(--fill-0, white)"/>
<path id="Vector_23" d="M158.623 53.3499H154.393V72.935H158.623V53.3499Z" fill="var(--fill-0, white)"/>
<path id="Vector_24" d="M171.451 55.8847C170.901 55.8197 170.404 55.7764 169.941 55.7439C169.487 55.7222 169.045 55.7005 168.624 55.6897C168.203 55.6789 167.793 55.668 167.373 55.668V63.0558C167.373 64.659 167.405 65.9264 167.47 66.8905C167.535 67.8437 167.686 68.5695 167.923 69.0678C168.16 69.5661 168.495 69.8911 168.916 70.0536C169.347 70.2161 169.941 70.2919 170.696 70.2919C170.901 70.2919 171.214 70.2702 171.613 70.2161C172.012 70.1619 172.573 70.0427 173.274 69.8586V72.61C172.336 72.8158 171.527 72.935 170.847 72.9675C170.167 72.9892 169.682 73.0108 169.401 73.0108C168.02 73.0108 166.92 72.9025 166.089 72.675C165.269 72.4475 164.643 71.9926 164.211 71.2993C163.78 70.606 163.489 69.6203 163.348 68.3312C163.208 67.053 163.133 65.3306 163.133 63.1858V48.7353H167.362V52.9708C167.88 52.9708 168.376 52.9816 168.829 53.0141C169.282 53.0358 169.736 53.0683 170.178 53.0899C170.62 53.1116 171.095 53.1441 171.591 53.1874C172.088 53.2307 172.649 53.2849 173.274 53.3607V56.1122C172.595 56.0364 171.98 55.9605 171.44 55.8955L171.451 55.8847Z" fill="var(--fill-0, white)"/>
<path id="Vector_25" d="M184.614 52.9599C185.919 52.9599 186.977 53.0574 187.786 53.2524C188.595 53.4474 189.221 53.859 189.663 54.4656C190.106 55.0831 190.418 55.9605 190.58 57.0979C190.753 58.2353 190.85 59.7519 190.872 61.6367V72.935H186.642V72.5234C185.811 72.6317 184.981 72.7292 184.171 72.8375C183.362 72.9458 182.445 73 181.431 73C180.287 73 179.327 72.9025 178.572 72.7292C177.817 72.545 177.202 72.2417 176.727 71.8084C176.252 71.3751 175.929 70.801 175.724 70.0752C175.529 69.3603 175.432 68.4612 175.432 67.3888V66.8038C175.432 65.7314 175.529 64.8323 175.724 64.1174C175.918 63.4024 176.252 62.8175 176.727 62.3842C177.202 61.9509 177.806 61.6476 178.572 61.4634C179.327 61.2793 180.277 61.1926 181.431 61.1926C182.445 61.1926 183.362 61.2468 184.171 61.3551C184.981 61.4634 185.801 61.5609 186.642 61.6692C186.621 60.3368 186.556 59.2753 186.47 58.4845C186.372 57.6937 186.211 57.0979 185.962 56.6755C185.714 56.253 185.38 55.993 184.97 55.8739C184.549 55.7547 184.01 55.7005 183.33 55.7005H181.841C181.366 55.7005 180.881 55.7114 180.374 55.7439C179.867 55.7655 179.306 55.8197 178.691 55.8847C178.076 55.9497 177.374 56.0364 176.597 56.1447V53.3932C177.385 53.2849 178.076 53.2091 178.669 53.1549C179.273 53.1008 179.867 53.0683 180.449 53.0358C181.032 53.0141 181.647 52.9924 182.294 52.9924H184.625L184.614 52.9599ZM186.642 70.281V63.8791H182.38C181.388 63.8791 180.708 64.0849 180.331 64.5073C179.953 64.9298 179.737 65.6989 179.683 66.8255C179.683 68.1579 179.877 69.0678 180.255 69.5553C180.633 70.0427 181.345 70.281 182.391 70.281H186.653H186.642Z" fill="var(--fill-0, white)"/>
<path id="Vector_26" d="M158.623 48.7244H154.393V51.8875H158.623V48.7244Z" fill="var(--fill-0, white)"/>
</g>
<defs>
<clipPath id="clip0_6_217">
<rect width="190.872" height="73" fill="white"/>
</clipPath>
</defs>
</svg>
