<svg preserveAspectRatio="none" width="100%" height="100%" overflow="visible" style="display: block;" viewBox="0 0 499.934 582.366" fill="none" xmlns="http://www.w3.org/2000/svg">
<g id="Vector top right">
<path d="M303.578 501.93L310.978 369.07L312.258 356.52L308.178 500.32L303.578 501.93Z" fill="#1F135A"/>
<path d="M246.188 522.05L327.138 493.68L278.828 540.45L246.188 522.05Z" fill="#1F135A"/>
<path d="M276.768 299.4L218.218 531.4C218.218 531.4 247.158 519.26 247.198 512.16C247.238 505.06 300.798 283.49 300.798 283.49L294.058 285.71L276.768 299.4Z" fill="#423795"/>
<path d="M79.0684 210.46L276.768 299.4L300.998 279.47L54.0484 166.56L79.0684 210.46Z" fill="#3D2F8F"/>
<path d="M329.148 266.11L219.878 18.9999L186.588 25.7399L292.868 284.69L329.148 266.11Z" fill="#1F135A"/>
<path d="M199.118 54.0899L65.8684 150.44L56.1384 146.12L188.698 29.9799L199.118 54.0899Z" fill="#403091"/>
<path d="M199.118 54.0899L319.598 130.81L329.508 87.7499L180.588 12.1699L199.118 54.0899Z" fill="#423795"/>
<path d="M288.068 254.69L314.968 112.46L316.298 271.5L288.068 254.69Z" fill="#1F135A"/>
<path d="M308.391 256.73L9.71728 437.542L30.826 472.41L329.499 291.599L308.391 256.73Z" fill="url(#paint0_linear_6_213)"/>
<path d="M48.0284 225.47L52.0284 435.84L30.0184 450.87L28.0984 218.96L48.0284 225.47Z" fill="#403091"/>
<path d="M48.4984 256.95L185.978 523.01L137.928 407.48L42.2884 214.79L48.4984 256.95Z" fill="#1F135A"/>
<path d="M323.528 328.41L433.628 397.36L432.108 368.35L310.668 291.34L323.528 328.41Z" fill="#1F135A"/>
<path d="M497.128 422.35C493.428 428.69 486.438 432.38 479.098 432.41L411.798 432.66C396.998 432.71 383.508 441.14 376.968 454.41C376.968 454.41 358.498 490.7 347.278 514.63C340.238 529.64 311.638 546.15 311.638 546.15C311.638 546.15 268.458 568.34 248.548 578.1C228.638 587.86 209.598 577.82 209.598 577.82L22.1384 479.02C22.1384 479.02 -2.44161 467.05 0.198394 440C1.41839 385.63 5.62839 196.49 5.56839 170.72C5.49839 140.57 28.0284 121.17 28.0284 121.17C28.0284 121.17 136.198 32.9299 163.318 10.4199C190.438 -12.0901 221.578 8.87993 221.578 8.87993L336.088 77.6099C336.088 77.6099 358.598 86.3699 355.508 116.6C353.438 136.84 345.438 215.18 341.928 249.57C340.878 259.81 344.918 269.9 352.738 276.6L492.808 396.56C497.958 400.97 500.498 407.57 499.828 414.11C499.538 416.93 498.658 419.75 497.128 422.36V422.35ZM192.678 39.0499L46.5784 158.65L40.8684 442.82L229.328 542.16L307.888 502.37C307.888 502.37 338.048 438 351.378 414.16C364.708 390.31 392.138 391.97 392.138 391.97L424.678 391.85L313.688 296.8C313.588 296.72 313.498 296.63 313.398 296.55L305.388 289.43C300.498 285.08 297.998 278.65 298.658 272.14L314.968 112.47L192.668 39.0699L192.678 39.0499Z" fill="#4A429B"/>
<path d="M242.948 553.75C243.318 550.1 242.718 546.31 240.988 542.78L56.4784 164.97C51.5484 154.85 39.3484 150.65 29.2384 155.57C19.1184 160.5 14.9184 172.69 19.8384 182.81L204.358 560.62C209.288 570.74 221.488 574.94 231.598 570.02C238.178 566.82 242.258 560.53 242.948 553.75Z" fill="#4A429B"/>
<path d="M339.208 276.26C340.098 267.56 335.278 259.04 326.958 255.47L49.8584 136.07C39.5184 131.64 27.5384 136.43 23.0984 146.77C18.6684 157.11 23.4584 169.1 33.7984 173.53L294.048 285.71L212.458 549.91C209.138 560.67 215.168 572.07 225.918 575.39C236.668 578.71 248.078 572.68 251.398 561.93L338.398 280.21C338.808 278.9 339.068 277.58 339.208 276.26Z" fill="#4A429B"/>
<path d="M52.0284 435.84L40.8684 442.82L183.558 518.03L52.0284 435.84Z" fill="#322E82"/>
<path d="M338.678 439.91L339.768 319.14L329.188 310.08L310.978 369.07L307.888 502.37L338.678 439.91Z" fill="url(#paint1_linear_6_213)"/>
<path d="M306.388 196.53L260.978 93.4799L199.118 54.0899L279.398 235.09L302.178 246.22L306.388 196.53Z" fill="url(#paint2_linear_6_213)"/>
</g>
<defs>
<linearGradient id="paint0_linear_6_213" x1="457.38" y1="275.519" x2="54.6906" y2="275.76" gradientUnits="userSpaceOnUse">
<stop stop-color="#4A429B"/>
<stop offset="1" stop-color="#221E58"/>
</linearGradient>
<linearGradient id="paint1_linear_6_213" x1="418.112" y1="1.71251" x2="406.502" y2="590.47" gradientUnits="userSpaceOnUse">
<stop stop-color="#4A429B"/>
<stop offset="1" stop-color="#221E58"/>
</linearGradient>
<linearGradient id="paint2_linear_6_213" x1="299.411" y1="224.581" x2="212.686" y2="44.9826" gradientUnits="userSpaceOnUse">
<stop stop-color="#4A429B"/>
<stop offset="1" stop-color="#221E58"/>
</linearGradient>
</defs>
</svg>
